<svg xmlns="http://www.w3.org/2000/svg" width="600" height="400" viewBox="0 0 600 400">
  <rect width="600" height="400" fill="#FFB74D"/>
  <g transform="translate(300, 200)">
    <rect x="-100" y="-70" width="200" height="140" fill="#ffffff" rx="10" ry="10"/>
    <rect x="-90" y="-60" width="180" height="30" fill="#f5f5f5" rx="5" ry="5"/>
    <rect x="-90" y="-20" width="180" height="10" fill="#f5f5f5" rx="5" ry="5"/>
    <rect x="-90" y="0" width="180" height="10" fill="#f5f5f5" rx="5" ry="5"/>
    <rect x="-90" y="20" width="180" height="10" fill="#f5f5f5" rx="5" ry="5"/>
    <rect x="-90" y="40" width="100" height="20" fill="#FFB74D" rx="5" ry="5"/>
  </g>
  <text x="300" y="100" font-family="Arial, sans-serif" font-size="32" font-weight="bold" text-anchor="middle" fill="#ffffff">Career Workshop</text>
  <g transform="translate(150, 300)">
    <circle cx="0" cy="0" r="30" fill="#ffffff"/>
    <path d="M-15,-5 L0,10 L15,-5" stroke="#FFB74D" stroke-width="6" fill="none" stroke-linecap="round" stroke-linejoin="round"/>
  </g>
  <g transform="translate(450, 300)">
    <circle cx="0" cy="0" r="30" fill="#ffffff"/>
    <rect x="-15" y="-15" width="30" height="30" fill="#FFB74D"/>
  </g>
</svg>

